<svg width="34" height="34" viewBox="0 0 34 34" fill="none" xmlns="http://www.w3.org/2000/svg">
<path d="M28.0028 21.1554C27.9518 20.7399 27.6175 20.3999 27.2 20.3999C26.7825 20.3999 26.4501 20.7399 26.3992 21.1554C26.0573 23.8905 23.8907 26.0572 21.1556 26.399C20.74 26.45 20.4 26.7825 20.4 27.1999C20.4 27.6173 20.74 27.9516 21.1556 28.0027C23.8906 28.3427 26.0573 30.5111 26.3992 33.2462C26.4501 33.6599 26.7826 33.9999 27.2 33.9999C27.6174 33.9999 27.9518 33.6599 28.0028 33.2462C28.3428 30.5112 30.5112 28.3426 33.2464 28.0027C33.66 27.9517 34 27.6173 34 27.1999C34 26.7824 33.66 26.45 33.2464 26.399C30.5113 26.0571 28.3427 23.8906 28.0028 21.1554Z" fill="white"/>
<path d="M13.7707 0.980121C13.7265 0.441337 13.2925 0 12.75 0C12.2075 0 11.7735 0.441337 11.7293 0.980121C11.2567 6.69891 6.69749 11.2577 0.98019 11.7285C0.439532 11.7726 0 12.2084 0 12.7491C0 13.2916 0.439527 13.7256 0.98019 13.7715C6.69796 14.2423 11.2566 18.8011 11.7293 24.518C11.7735 25.0587 12.2075 25.5 12.75 25.5C13.2925 25.5 13.7265 25.0587 13.7707 24.518C14.2433 18.8007 18.8025 14.2423 24.5198 13.7715C25.0605 13.7256 25.5 13.2916 25.5 12.7491C25.5 12.2085 25.0605 11.7727 24.5198 11.7285C18.802 11.2577 14.2434 6.69891 13.7707 0.980121Z" fill="white"/>
</svg>

